<mxfile host="app.diagrams.net" modified="2024-05-07T10:02:37.669Z" agent="Mozilla/5.0 (Windows NT 10.0; Win64; x64) AppleWebKit/537.36 (KHTML, like Gecko) Chrome/124.0.0.0 Safari/537.36 Edg/124.0.0.0" etag="UbYaxGdwS8aexSmIoLgn" version="24.3.1" type="github" pages="2">
  <diagram name="Pricing-Products" id="OQi7glzdH_jjPSxP3NA_">
    <mxGraphModel dx="1386" dy="793" grid="1" gridSize="10" guides="1" tooltips="1" connect="1" arrows="1" fold="1" page="1" pageScale="1" pageWidth="1100" pageHeight="850" math="0" shadow="0">
      <root>
        <mxCell id="0" />
        <mxCell id="1" parent="0" />
        <mxCell id="DpxPHLtfP9_biqCS_d9Q-1" value="" style="rounded=0;whiteSpace=wrap;html=1;flipV=1;flipH=1;fillColor=#d5e8d4;strokeColor=#82b366;" vertex="1" parent="1">
          <mxGeometry width="1100" height="850" as="geometry" />
        </mxCell>
        <mxCell id="DpxPHLtfP9_biqCS_d9Q-2" value="&lt;b&gt;&lt;font style=&quot;font-size: 30px;&quot;&gt;Pricing Strategy&lt;/font&gt;&lt;/b&gt;" style="rounded=1;whiteSpace=wrap;html=1;" vertex="1" parent="1">
          <mxGeometry x="20" y="20" width="290" height="60" as="geometry" />
        </mxCell>
        <mxCell id="DpxPHLtfP9_biqCS_d9Q-7" value="" style="edgeStyle=orthogonalEdgeStyle;rounded=0;orthogonalLoop=1;jettySize=auto;html=1;strokeWidth=2;" edge="1" parent="1" source="DpxPHLtfP9_biqCS_d9Q-3" target="DpxPHLtfP9_biqCS_d9Q-6">
          <mxGeometry relative="1" as="geometry" />
        </mxCell>
        <mxCell id="DpxPHLtfP9_biqCS_d9Q-3" value="" style="rounded=1;whiteSpace=wrap;html=1;fillColor=#ffe6cc;strokeColor=#d79b00;" vertex="1" parent="1">
          <mxGeometry x="30" y="130" width="290" height="120" as="geometry" />
        </mxCell>
        <mxCell id="DpxPHLtfP9_biqCS_d9Q-4" value="&lt;h1 style=&quot;margin-top: 0px;&quot;&gt;Select Items&lt;/h1&gt;&lt;p&gt;&lt;b&gt;&lt;font style=&quot;font-size: 14px;&quot;&gt;Using the &quot;Search Bar&quot; in ZenDrop, find the product matching our Branding.&lt;/font&gt;&lt;/b&gt;&lt;/p&gt;" style="text;html=1;whiteSpace=wrap;overflow=hidden;rounded=0;" vertex="1" parent="1">
          <mxGeometry x="40" y="140" width="270" height="100" as="geometry" />
        </mxCell>
        <mxCell id="DpxPHLtfP9_biqCS_d9Q-10" value="" style="edgeStyle=orthogonalEdgeStyle;rounded=0;orthogonalLoop=1;jettySize=auto;html=1;strokeWidth=2;" edge="1" parent="1" source="DpxPHLtfP9_biqCS_d9Q-6" target="DpxPHLtfP9_biqCS_d9Q-9">
          <mxGeometry relative="1" as="geometry">
            <Array as="points">
              <mxPoint x="610" y="355" />
            </Array>
          </mxGeometry>
        </mxCell>
        <mxCell id="DpxPHLtfP9_biqCS_d9Q-6" value="" style="whiteSpace=wrap;html=1;fillColor=#fff2cc;strokeColor=#d6b656;rounded=1;" vertex="1" parent="1">
          <mxGeometry x="430" y="130" width="440" height="120" as="geometry" />
        </mxCell>
        <mxCell id="DpxPHLtfP9_biqCS_d9Q-8" value="&lt;h1 style=&quot;margin-top: 0px;&quot;&gt;Compare Competition&lt;/h1&gt;&lt;p&gt;&lt;span style=&quot;font-size: 14px;&quot;&gt;&lt;b&gt;Once the Item page has been opened, &quot;Right Click&quot; and Select &quot;Search with Google&quot;. Drag around the Item, and Google Side Bar will provide Competitor Pricing&lt;/b&gt;&lt;/span&gt;&lt;/p&gt;" style="text;html=1;whiteSpace=wrap;overflow=hidden;rounded=0;" vertex="1" parent="1">
          <mxGeometry x="445" y="140" width="415" height="100" as="geometry" />
        </mxCell>
        <mxCell id="DpxPHLtfP9_biqCS_d9Q-9" value="" style="whiteSpace=wrap;html=1;fillColor=#fff2cc;strokeColor=#d6b656;rounded=1;arcSize=6;" vertex="1" parent="1">
          <mxGeometry x="30" y="290" width="380" height="260" as="geometry" />
        </mxCell>
        <mxCell id="DpxPHLtfP9_biqCS_d9Q-11" value="&lt;h1 style=&quot;margin-top: 0px;&quot;&gt;Pricing &amp;amp; Publishing&lt;/h1&gt;&lt;p&gt;&lt;span style=&quot;font-size: 14px;&quot;&gt;&lt;b&gt;Go into &quot;My Products&quot; on the left side navbar. Then find the newly added product. From there You will need to click &quot;Review &amp;amp; Publish&quot;.&lt;/b&gt;&lt;/span&gt;&lt;/p&gt;&lt;p&gt;&lt;/p&gt;&lt;ul&gt;&lt;li&gt;&lt;span style=&quot;font-size: 14px;&quot;&gt;&lt;b&gt;Product&lt;/b&gt;&lt;/span&gt;&lt;/li&gt;&lt;/ul&gt;&lt;ul&gt;&lt;li&gt;&lt;span style=&quot;font-size: 14px;&quot;&gt;&lt;b&gt;Description&lt;/b&gt;&lt;/span&gt;&lt;/li&gt;&lt;/ul&gt;&lt;ul&gt;&lt;li&gt;&lt;span style=&quot;font-size: 14px;&quot;&gt;&lt;b&gt;Variant&lt;/b&gt;&lt;/span&gt;&lt;/li&gt;&lt;/ul&gt;&lt;ul&gt;&lt;li&gt;&lt;span style=&quot;font-size: 14px;&quot;&gt;&lt;b&gt;Images&lt;/b&gt;&lt;/span&gt;&lt;/li&gt;&lt;/ul&gt;&lt;p&gt;&lt;/p&gt;" style="text;html=1;whiteSpace=wrap;overflow=hidden;rounded=0;" vertex="1" parent="1">
          <mxGeometry x="50" y="305" width="340" height="235" as="geometry" />
        </mxCell>
        <mxCell id="DpxPHLtfP9_biqCS_d9Q-12" value="" style="rounded=0;whiteSpace=wrap;html=1;fillColor=none;" vertex="1" parent="1">
          <mxGeometry x="71" y="411" width="109" height="30" as="geometry" />
        </mxCell>
        <mxCell id="DpxPHLtfP9_biqCS_d9Q-13" value="" style="rounded=0;whiteSpace=wrap;html=1;fillColor=none;" vertex="1" parent="1">
          <mxGeometry x="71" y="441" width="109" height="30" as="geometry" />
        </mxCell>
        <mxCell id="DpxPHLtfP9_biqCS_d9Q-14" value="" style="rounded=0;whiteSpace=wrap;html=1;fillColor=none;" vertex="1" parent="1">
          <mxGeometry x="71" y="471" width="109" height="30" as="geometry" />
        </mxCell>
        <mxCell id="DpxPHLtfP9_biqCS_d9Q-15" value="" style="rounded=0;whiteSpace=wrap;html=1;fillColor=none;" vertex="1" parent="1">
          <mxGeometry x="71" y="501" width="109" height="30" as="geometry" />
        </mxCell>
      </root>
    </mxGraphModel>
  </diagram>
  <diagram id="QxXQs3iAcOjyqN71yjqv" name="Marketing-Strategy">
    <mxGraphModel dx="1631" dy="933" grid="1" gridSize="10" guides="1" tooltips="1" connect="1" arrows="1" fold="1" page="1" pageScale="1" pageWidth="1100" pageHeight="850" math="0" shadow="0">
      <root>
        <mxCell id="0" />
        <mxCell id="1" parent="0" />
        <mxCell id="UGzn6EexLU3w2QVSEY59-1" value="" style="rounded=0;whiteSpace=wrap;html=1;fillColor=#fad7ac;strokeColor=#b46504;" vertex="1" parent="1">
          <mxGeometry width="1100" height="850" as="geometry" />
        </mxCell>
        <mxCell id="ndKu-GeONx0wIlas_Lc6-1" value="&lt;b&gt;&lt;font style=&quot;font-size: 30px;&quot;&gt;Marketing Strategy&lt;/font&gt;&lt;/b&gt;" style="rounded=1;whiteSpace=wrap;html=1;fillColor=#008a00;fontColor=#ffffff;strokeColor=#005700;" vertex="1" parent="1">
          <mxGeometry x="20" y="20" width="340" height="60" as="geometry" />
        </mxCell>
        <mxCell id="ndKu-GeONx0wIlas_Lc6-5" value="" style="edgeStyle=orthogonalEdgeStyle;rounded=0;orthogonalLoop=1;jettySize=auto;html=1;strokeWidth=3;" edge="1" parent="1" source="ndKu-GeONx0wIlas_Lc6-2" target="ndKu-GeONx0wIlas_Lc6-4">
          <mxGeometry relative="1" as="geometry">
            <Array as="points">
              <mxPoint x="400" y="165" />
              <mxPoint x="400" y="165" />
            </Array>
          </mxGeometry>
        </mxCell>
        <mxCell id="ndKu-GeONx0wIlas_Lc6-6" value="" style="edgeStyle=orthogonalEdgeStyle;rounded=0;orthogonalLoop=1;jettySize=auto;html=1;strokeWidth=0;" edge="1" parent="1" source="ndKu-GeONx0wIlas_Lc6-2" target="ndKu-GeONx0wIlas_Lc6-4">
          <mxGeometry relative="1" as="geometry">
            <Array as="points">
              <mxPoint x="400" y="165" />
              <mxPoint x="400" y="165" />
            </Array>
          </mxGeometry>
        </mxCell>
        <mxCell id="ndKu-GeONx0wIlas_Lc6-23" style="edgeStyle=orthogonalEdgeStyle;rounded=0;orthogonalLoop=1;jettySize=auto;html=1;strokeWidth=2;" edge="1" parent="1" source="ndKu-GeONx0wIlas_Lc6-2" target="ndKu-GeONx0wIlas_Lc6-13">
          <mxGeometry relative="1" as="geometry">
            <Array as="points">
              <mxPoint x="180" y="260" />
              <mxPoint x="180" y="260" />
            </Array>
          </mxGeometry>
        </mxCell>
        <mxCell id="ndKu-GeONx0wIlas_Lc6-2" value="" style="rounded=1;whiteSpace=wrap;html=1;" vertex="1" parent="1">
          <mxGeometry x="60" y="130" width="320" height="120" as="geometry" />
        </mxCell>
        <mxCell id="ndKu-GeONx0wIlas_Lc6-3" value="&lt;h1 style=&quot;margin-top: 0px;&quot;&gt;Product Selecting&lt;/h1&gt;&lt;p&gt;For each product we upload &amp;amp; price; we will need to save the item and price to a spreadsheet then create content for that product.&amp;nbsp;&lt;/p&gt;" style="text;html=1;whiteSpace=wrap;overflow=hidden;rounded=0;" vertex="1" parent="1">
          <mxGeometry x="80" y="135" width="280" height="110" as="geometry" />
        </mxCell>
        <mxCell id="ndKu-GeONx0wIlas_Lc6-9" style="edgeStyle=orthogonalEdgeStyle;rounded=0;orthogonalLoop=1;jettySize=auto;html=1;entryX=0;entryY=0.5;entryDx=0;entryDy=0;strokeWidth=2;" edge="1" parent="1" source="ndKu-GeONx0wIlas_Lc6-4" target="ndKu-GeONx0wIlas_Lc6-7">
          <mxGeometry relative="1" as="geometry">
            <Array as="points">
              <mxPoint x="470" y="250" />
            </Array>
          </mxGeometry>
        </mxCell>
        <mxCell id="ndKu-GeONx0wIlas_Lc6-10" style="edgeStyle=orthogonalEdgeStyle;rounded=0;orthogonalLoop=1;jettySize=auto;html=1;entryX=0;entryY=0.5;entryDx=0;entryDy=0;strokeWidth=2;" edge="1" parent="1" source="ndKu-GeONx0wIlas_Lc6-4" target="ndKu-GeONx0wIlas_Lc6-8">
          <mxGeometry relative="1" as="geometry">
            <Array as="points">
              <mxPoint x="470" y="300" />
            </Array>
          </mxGeometry>
        </mxCell>
        <mxCell id="ndKu-GeONx0wIlas_Lc6-25" value="" style="edgeStyle=orthogonalEdgeStyle;rounded=0;orthogonalLoop=1;jettySize=auto;html=1;strokeWidth=2;" edge="1" parent="1" source="ndKu-GeONx0wIlas_Lc6-4" target="ndKu-GeONx0wIlas_Lc6-24">
          <mxGeometry relative="1" as="geometry" />
        </mxCell>
        <mxCell id="ndKu-GeONx0wIlas_Lc6-4" value="&lt;b&gt;&lt;font style=&quot;font-size: 20px;&quot;&gt;Influencity&lt;/font&gt;&lt;/b&gt;" style="whiteSpace=wrap;html=1;rounded=1;fillColor=#f8cecc;strokeColor=#b85450;" vertex="1" parent="1">
          <mxGeometry x="460" y="135" width="140" height="60" as="geometry" />
        </mxCell>
        <mxCell id="ndKu-GeONx0wIlas_Lc6-7" value="&lt;b style=&quot;font-size: 15px;&quot;&gt;&lt;font style=&quot;font-size: 15px;&quot;&gt;Product Content&lt;/font&gt;&lt;/b&gt;" style="rounded=1;whiteSpace=wrap;html=1;" vertex="1" parent="1">
          <mxGeometry x="500" y="230" width="140" height="40" as="geometry" />
        </mxCell>
        <mxCell id="ndKu-GeONx0wIlas_Lc6-8" value="&lt;b style=&quot;font-size: 15px;&quot;&gt;Promo URL&lt;/b&gt;" style="rounded=1;whiteSpace=wrap;html=1;" vertex="1" parent="1">
          <mxGeometry x="500" y="280" width="140" height="40" as="geometry" />
        </mxCell>
        <mxCell id="ndKu-GeONx0wIlas_Lc6-36" value="" style="edgeStyle=orthogonalEdgeStyle;rounded=0;orthogonalLoop=1;jettySize=auto;html=1;strokeWidth=2;" edge="1" parent="1" source="ndKu-GeONx0wIlas_Lc6-13" target="ndKu-GeONx0wIlas_Lc6-35">
          <mxGeometry relative="1" as="geometry" />
        </mxCell>
        <mxCell id="ndKu-GeONx0wIlas_Lc6-13" value="" style="rounded=1;whiteSpace=wrap;html=1;fillColor=#b1ddf0;strokeColor=#10739e;arcSize=10;" vertex="1" parent="1">
          <mxGeometry x="90" y="290" width="180" height="110" as="geometry" />
        </mxCell>
        <mxCell id="ndKu-GeONx0wIlas_Lc6-11" value="&lt;b&gt;&lt;font style=&quot;font-size: 18px;&quot;&gt;SpreadSheet&lt;/font&gt;&lt;/b&gt;" style="rounded=1;whiteSpace=wrap;html=1;" vertex="1" parent="1">
          <mxGeometry x="110" y="300" width="140" height="40" as="geometry" />
        </mxCell>
        <mxCell id="ndKu-GeONx0wIlas_Lc6-12" value="&lt;b&gt;&lt;font style=&quot;font-size: 18px;&quot;&gt;Vector DB&lt;/font&gt;&lt;/b&gt;" style="rounded=1;whiteSpace=wrap;html=1;" vertex="1" parent="1">
          <mxGeometry x="110" y="350" width="140" height="40" as="geometry" />
        </mxCell>
        <mxCell id="ndKu-GeONx0wIlas_Lc6-20" value="" style="rounded=1;whiteSpace=wrap;html=1;arcSize=18;" vertex="1" parent="1">
          <mxGeometry x="460" y="370" width="510" height="105" as="geometry" />
        </mxCell>
        <mxCell id="ndKu-GeONx0wIlas_Lc6-14" value="&lt;b&gt;Content&lt;/b&gt;&lt;div&gt;&lt;b&gt;Creator&lt;/b&gt;&lt;/div&gt;&lt;div&gt;&lt;b&gt;App&lt;/b&gt;&lt;/div&gt;" style="shape=step;perimeter=stepPerimeter;whiteSpace=wrap;html=1;fixedSize=1;fillColor=#d5e8d4;strokeColor=#82b366;rounded=1;arcSize=10;gradientColor=#97d077;" vertex="1" parent="1">
          <mxGeometry x="470" y="380" width="120" height="80" as="geometry" />
        </mxCell>
        <mxCell id="ndKu-GeONx0wIlas_Lc6-16" value="&lt;b&gt;Cloud&lt;/b&gt;&lt;div&gt;&lt;b&gt;Campaign&lt;/b&gt;&lt;/div&gt;&lt;div&gt;&lt;b&gt;API&lt;/b&gt;&lt;/div&gt;" style="shape=step;perimeter=stepPerimeter;whiteSpace=wrap;html=1;fixedSize=1;fillColor=#dae8fc;strokeColor=#6c8ebf;rounded=1;arcSize=10;gradientColor=#7ea6e0;" vertex="1" parent="1">
          <mxGeometry x="710" y="380" width="120" height="80" as="geometry" />
        </mxCell>
        <mxCell id="ndKu-GeONx0wIlas_Lc6-19" value="&lt;div&gt;&lt;b&gt;Retool&amp;nbsp;&lt;/b&gt;&lt;/div&gt;&lt;div&gt;&lt;b&gt;+&lt;/b&gt;&lt;/div&gt;&lt;div&gt;&lt;b&gt;Zapier&lt;/b&gt;&lt;/div&gt;" style="shape=step;perimeter=stepPerimeter;whiteSpace=wrap;html=1;fixedSize=1;fillColor=#ffcd28;strokeColor=#d79b00;rounded=1;arcSize=10;gradientColor=#ffa500;" vertex="1" parent="1">
          <mxGeometry x="590" y="380" width="120" height="80" as="geometry" />
        </mxCell>
        <mxCell id="ndKu-GeONx0wIlas_Lc6-22" style="edgeStyle=orthogonalEdgeStyle;rounded=0;orthogonalLoop=1;jettySize=auto;html=1;entryX=0;entryY=0.5;entryDx=0;entryDy=0;strokeWidth=2;" edge="1" parent="1" source="ndKu-GeONx0wIlas_Lc6-13" target="ndKu-GeONx0wIlas_Lc6-26">
          <mxGeometry relative="1" as="geometry" />
        </mxCell>
        <mxCell id="ndKu-GeONx0wIlas_Lc6-29" value="" style="edgeStyle=orthogonalEdgeStyle;rounded=0;orthogonalLoop=1;jettySize=auto;html=1;strokeWidth=2;" edge="1" parent="1" source="ndKu-GeONx0wIlas_Lc6-24" target="ndKu-GeONx0wIlas_Lc6-28">
          <mxGeometry relative="1" as="geometry" />
        </mxCell>
        <mxCell id="ndKu-GeONx0wIlas_Lc6-24" value="&lt;font style=&quot;font-size: 15px;&quot;&gt;&lt;b&gt;Connect with Influencers&lt;/b&gt;&lt;/font&gt;" style="whiteSpace=wrap;html=1;rounded=1;fillColor=#d5e8d4;strokeColor=#82b366;" vertex="1" parent="1">
          <mxGeometry x="740" y="135" width="140" height="60" as="geometry" />
        </mxCell>
        <mxCell id="ndKu-GeONx0wIlas_Lc6-31" style="edgeStyle=orthogonalEdgeStyle;rounded=0;orthogonalLoop=1;jettySize=auto;html=1;strokeWidth=2;" edge="1" parent="1" source="ndKu-GeONx0wIlas_Lc6-26">
          <mxGeometry relative="1" as="geometry">
            <mxPoint x="553" y="370" as="targetPoint" />
            <Array as="points">
              <mxPoint x="553" y="350" />
              <mxPoint x="553" y="350" />
            </Array>
          </mxGeometry>
        </mxCell>
        <mxCell id="ndKu-GeONx0wIlas_Lc6-26" value="" style="rounded=1;whiteSpace=wrap;html=1;fillColor=none;arcSize=11;" vertex="1" parent="1">
          <mxGeometry x="460" y="220" width="190" height="110" as="geometry" />
        </mxCell>
        <mxCell id="ndKu-GeONx0wIlas_Lc6-30" style="edgeStyle=orthogonalEdgeStyle;rounded=0;orthogonalLoop=1;jettySize=auto;html=1;entryX=1;entryY=0.5;entryDx=0;entryDy=0;strokeWidth=2;" edge="1" parent="1" source="ndKu-GeONx0wIlas_Lc6-28" target="ndKu-GeONx0wIlas_Lc6-26">
          <mxGeometry relative="1" as="geometry" />
        </mxCell>
        <mxCell id="ndKu-GeONx0wIlas_Lc6-28" value="&lt;div&gt;&lt;font size=&quot;1&quot; style=&quot;&quot;&gt;&lt;b style=&quot;font-size: 15px;&quot;&gt;Discuss Price per&amp;nbsp;&lt;/b&gt;&lt;/font&gt;&lt;b style=&quot;background-color: initial; font-size: 15px;&quot;&gt;Posted Product Content&lt;/b&gt;&lt;/div&gt;" style="whiteSpace=wrap;html=1;rounded=1;fillColor=#fff2cc;strokeColor=#d6b656;" vertex="1" parent="1">
          <mxGeometry x="740" y="240" width="140" height="70" as="geometry" />
        </mxCell>
        <mxCell id="ndKu-GeONx0wIlas_Lc6-32" value="&lt;b&gt;Social&lt;/b&gt;&lt;div&gt;&lt;b&gt;Media&lt;/b&gt;&lt;/div&gt;&lt;div&gt;&lt;b&gt;Platforms&lt;/b&gt;&lt;/div&gt;" style="shape=step;perimeter=stepPerimeter;whiteSpace=wrap;html=1;fixedSize=1;fillColor=#f8cecc;strokeColor=#b85450;rounded=1;arcSize=10;gradientColor=#ea6b66;" vertex="1" parent="1">
          <mxGeometry x="830" y="380" width="120" height="80" as="geometry" />
        </mxCell>
        <mxCell id="ndKu-GeONx0wIlas_Lc6-33" value="" style="rounded=1;whiteSpace=wrap;html=1;arcSize=6;fillColor=#b1ddf0;strokeColor=#10739e;" vertex="1" parent="1">
          <mxGeometry x="580" y="640" width="480" height="170" as="geometry" />
        </mxCell>
        <mxCell id="ndKu-GeONx0wIlas_Lc6-34" value="&lt;h1 style=&quot;margin-top: 0px;&quot;&gt;Branding Consistency&amp;nbsp;&lt;/h1&gt;&lt;p style=&quot;font-size: 14px;&quot;&gt;For each &lt;font style=&quot;font-weight: bold; font-size: 14px;&quot;&gt;Product Content &lt;/font&gt;&lt;font style=&quot;font-size: 14px;&quot;&gt;we must ensure that the &quot;Style &amp;amp; Vibe&quot; matches that of the Exclusive Carribean Themed Lifestyle; by doing so we will be imprinting the &lt;u style=&quot;&quot;&gt;Conway Express&lt;/u&gt; mindset on our customers, as a form of Familiarity.&lt;/font&gt;&lt;/p&gt;" style="text;html=1;whiteSpace=wrap;overflow=hidden;rounded=0;" vertex="1" parent="1">
          <mxGeometry x="602.5" y="655" width="327.5" height="145" as="geometry" />
        </mxCell>
        <mxCell id="ndKu-GeONx0wIlas_Lc6-35" value="" style="rounded=1;whiteSpace=wrap;html=1;fillColor=#b1ddf0;strokeColor=#10739e;arcSize=6;" vertex="1" parent="1">
          <mxGeometry x="100" y="430" width="160" height="170" as="geometry" />
        </mxCell>
        <mxCell id="ndKu-GeONx0wIlas_Lc6-37" value="&lt;span style=&quot;font-size: 18px;&quot;&gt;&lt;b&gt;Product Profitability&lt;/b&gt;&lt;/span&gt;&lt;div&gt;&lt;span style=&quot;font-size: 18px;&quot;&gt;&lt;b&gt;Analytics&amp;nbsp;&lt;/b&gt;&lt;/span&gt;&lt;/div&gt;" style="rounded=1;whiteSpace=wrap;html=1;" vertex="1" parent="1">
          <mxGeometry x="115" y="440" width="130" height="70" as="geometry" />
        </mxCell>
        <mxCell id="ndKu-GeONx0wIlas_Lc6-38" value="" style="image;aspect=fixed;html=1;points=[];align=center;fontSize=12;image=img/lib/azure2/devops/Change_Analysis.svg;" vertex="1" parent="1">
          <mxGeometry x="146" y="513" width="68" height="67.67999999999999" as="geometry" />
        </mxCell>
        <mxCell id="ndKu-GeONx0wIlas_Lc6-39" value="" style="shape=image;html=1;verticalAlign=top;verticalLabelPosition=bottom;labelBackgroundColor=#ffffff;imageAspect=0;aspect=fixed;image=https://cdn2.iconfinder.com/data/icons/essential-web-3/50/verbal-branding-word-mouth-marketing-128.png" vertex="1" parent="1">
          <mxGeometry x="950" y="690" width="98" height="98" as="geometry" />
        </mxCell>
        <mxCell id="k7xHwrVNi6T-_4NB5Ge4-1" value="" style="rounded=1;whiteSpace=wrap;html=1;arcSize=7;fillColor=#cdeb8b;strokeColor=#36393d;" vertex="1" parent="1">
          <mxGeometry x="100" y="640" width="440" height="170" as="geometry" />
        </mxCell>
        <mxCell id="k7xHwrVNi6T-_4NB5Ge4-3" value="&lt;span style=&quot;font-size: 15px;&quot;&gt;By saving all known data, such as Content Statistics, Product Pricing, Product Variations, Profits, and so on; We will be able to use Retool Vector AI Chat to get deep insights in our strategies and make changes accordingly.&amp;nbsp;&amp;nbsp;&lt;/span&gt;" style="text;html=1;align=center;verticalAlign=middle;whiteSpace=wrap;rounded=0;" vertex="1" parent="1">
          <mxGeometry x="120" y="650" width="300" height="150" as="geometry" />
        </mxCell>
        <mxCell id="k7xHwrVNi6T-_4NB5Ge4-5" value="" style="image;aspect=fixed;html=1;points=[];align=center;fontSize=12;image=img/lib/azure2/ai_machine_learning/Cognitive_Services.svg;" vertex="1" parent="1">
          <mxGeometry x="440" y="693.9399999999999" width="88" height="62.12" as="geometry" />
        </mxCell>
        <mxCell id="k7xHwrVNi6T-_4NB5Ge4-6" value="" style="image;aspect=fixed;html=1;points=[];align=center;fontSize=12;image=img/lib/azure2/app_services/Search_Services.svg;" vertex="1" parent="1">
          <mxGeometry x="640" y="141" width="68" height="49.120000000000005" as="geometry" />
        </mxCell>
        <mxCell id="k7xHwrVNi6T-_4NB5Ge4-7" value="" style="rounded=1;whiteSpace=wrap;html=1;fillColor=none;arcSize=5;" vertex="1" parent="1">
          <mxGeometry x="420" y="130" width="590" height="370" as="geometry" />
        </mxCell>
      </root>
    </mxGraphModel>
  </diagram>
</mxfile>
